<svg id="Layer_1" data-name="Layer 1" xmlns="http://www.w3.org/2000/svg" viewBox="0 0 200 200"><defs><style>.cls-1{fill:#f38c06;}</style></defs><title>Logo Orange_1</title><path class="cls-1" d="M154.72,53a33.91,33.91,0,1,0,18.51,62.46h0a3.59,3.59,0,0,0,3.59,3.59h8.42a3.62,3.62,0,0,0,3.63-3.63V87.47C188.87,68.69,173.51,52.85,154.72,53Zm.25,52.17A18.26,18.26,0,1,1,173.2,85.84,18.27,18.27,0,0,1,155,105.15Z"/><path class="cls-1" d="M108.75,58.34v55.13A33.88,33.88,0,0,1,90.4,143.6l-.2.11a25.92,25.92,0,0,1-11.73,2.74,3.62,3.62,0,0,1-3.62-3.62V135a3.61,3.61,0,0,1,2.73-3.51l.56-.1a18.27,18.27,0,0,0,15-18V58.34a3.62,3.62,0,0,1,3.63-3.63h8.38A3.62,3.62,0,0,1,108.75,58.34Z"/><rect class="cls-1" x="38.23" y="131.99" width="15.64" height="15.03" rx="3.63"/><circle class="cls-1" cx="46.05" cy="88.04" r="8.11"/><path class="cls-1" d="M62.27,118.85c-.57.31-1.15.59-1.75.85a7,7,0,0,1-3.33.6,8.76,8.76,0,0,1-4.4-1.6A7.78,7.78,0,0,1,50,115v0a5,5,0,0,1,1-5l1.48-1.63,3.66-4,.8-.88a16.43,16.43,0,0,1,1.42-1.35,18.8,18.8,0,0,0-13.21-33h0A18.8,18.8,0,0,0,27.28,88.8a19.5,19.5,0,0,0,8.85,15.08,4.66,4.66,0,0,1,.49.39l5.55,5a4.82,4.82,0,0,1,1.58,3.94,8.79,8.79,0,0,1-.73,2.87,7.72,7.72,0,0,1-1.72,2.4A7.89,7.89,0,0,1,32.35,120l-1.07-.47A34.93,34.93,0,0,1,44.39,53h0a34.93,34.93,0,0,1,17.87,65.83Z"/></svg>